<svg width="253" height="52" viewBox="0 0 253 52" fill="none" xmlns="http://www.w3.org/2000/svg" xmlns:c2pa="http://c2pa.org/manifest"><metadata><c2pa:manifest>AAAWgmp1bWIAAAAeanVtZGMycGEAEQAQgAAAqgA4m3EDYzJwYQAAABZcanVtYgAAAEdqdW1kYzJtYQARABCAAACqADibcQN1cm46YzJwYTpmMGFiYjc5OS0xN2M0LTQyYzctYjFkZi0zNzE4ODZlOGU4NTEAAAADl2p1bWIAAAApanVtZGMyYXMAEQAQgAAAqgA4m3EDYzJwYS5hc3NlcnRpb25zAAAAALxqdW1iAAAARGp1bWRjYm9yABEAEIAAAKoAOJtxE2MycGEuaW5ncmVkaWVudC52MwAAAAAYYzJzaN/793WlaENBkMK/P1Y5R2oAAABwY2JvcqNpZGM6Zm9ybWF0bWltYWdlL3N2Zyt4bWxqaW5zdGFuY2VJRHgseG1wOmlpZDo1NjhmOGI1MS01NzA5LTRlMWUtYmE5MS0xOWZjOTFmOWU4M2JscmVsYXRpb25zaGlwaHBhcmVudE9mAAAB4mp1bWIAAABBanVtZGNib3IAEQAQgAAAqgA4m3ETYzJwYS5hY3Rpb25zLnYyAAAAABhjMnNoGBuxSl3igmG0nAM2Qa/QaAAAAZljYm9yomdhY3Rpb25zgqJmYWN0aW9ua2MycGEub3BlbmVkanBhcmFtZXRlcnOha2luZ3JlZGllbnRzgaJjdXJseC1zZWxmI2p1bWJmPWMycGEuYXNzZXJ0aW9ucy9jMnBhLmluZ3JlZGllbnQudjNkaGFzaFggHGlDfsXQA6QZzKgEoyAtt5JlJiulF+VszvE1DHssS6qkZmFjdGlvbngdY29tLmFudGhyb3BpYy5jbGF1ZGUucHJvdmlkZWRqcGFyYW1ldGVyc6F4H2NvbS5hbnRocm9waWMub3JpZ2luLWNvbmZpZGVuY2VndW5rbm93bmtkZXNjcmlwdGlvbnhmQ2xhdWRlIHByb3ZpZGVkIHRoaXMgZmlsZSBhdCB0aGUgcmVxdWVzdCBvZiBhIHVzZXIgYW5kIG1heSBoYXZlIGNyZWF0ZWQgb3IgbW9kaWZpZWQgdGhlIGZpbGUgY29udGVudHMubXNvZnR3YXJlQWdlbnShZG5hbWVmQ2xhdWRlcmFsbEFjdGlvbnNJbmNsdWRlZPUAAADIanVtYgAAAEBqdW1kY2JvcgARABCAAACqADibcRNjMnBhLmhhc2guZGF0YQAAAAAYYzJzaFiWvx7BZhP6ZGvZwJtW89wAAACAY2JvcqVjYWxnZnNoYTI1NmNwYWRNAAAAAAAAAAAAAAAAAGRoYXNoWCDA23tblXXcyYtNr8w/fod4j2bUXpcqFKUHN9Din6BF42RuYW1lbmp1bWJmIG1hbmlmZXN0amV4Y2x1c2lvbnOBomVzdGFydBigZmxlbmd0aBkeBAAAAj5qdW1iAAAAJ2p1bWRjMmNsABEAEIAAAKoAOJtxA2MycGEuY2xhaW0udjIAAAACD2Nib3KlY2FsZ2ZzaGEyNTZpc2lnbmF0dXJleE1zZWxmI2p1bWJmPS9jMnBhL3VybjpjMnBhOmYwYWJiNzk5LTE3YzQtNDJjNy1iMWRmLTM3MTg4NmU4ZTg1MS9jMnBhLnNpZ25hdHVyZWppbnN0YW5jZUlEeCx4bXA6aWlkOjAyODc5YTA4LTI3NDgtNGNmYy05YjZkLWQ1YzFjOTEyZjJhMXJjcmVhdGVkX2Fzc2VydGlvbnODomN1cmx4LXNlbGYjanVtYmY9YzJwYS5hc3NlcnRpb25zL2MycGEuaW5ncmVkaWVudC52M2RoYXNoWCAcaUN+xdADpBnMqASjIC23kmUmK6UX5WzO8TUMeyxLqqJjdXJseCpzZWxmI2p1bWJmPWMycGEuYXNzZXJ0aW9ucy9jMnBhLmFjdGlvbnMudjJkaGFzaFggr3l9V8ZKFHl+HEZUVxUA6Sj2iGqNbbKmAEASgcn1dtiiY3VybHgpc2VsZiNqdW1iZj1jMnBhLmFzc2VydGlvbnMvYzJwYS5oYXNoLmRhdGFkaGFzaFggf0Iwxkr2748ZDuBbN/3hAJXP2Vto58t76yf5YrF92k10Y2xhaW1fZ2VuZXJhdG9yX2luZm+jZG5hbWVvQW50aHJvcGljIEZpbGVzZ3ZlcnNpb25lMS4wLjBrc3BlY1ZlcnNpb25lMi40LjAAABA4anVtYgAAAChqdW1kYzJjcwARABCAAACqADibcQNjMnBhLnNpZ25hdHVyZQAAABAIY2JvctKEWQISogEmGCFZAgowggIGMIIBjaADAgECAhRA5aAK7sI50L64g/oGQgU9Z1UTADAKBggqhkjOPQQDAzBJMRcwFQYDVQQKEw5BbnRocm9waWMsIFBCQzEuMCwGA1UEAxMlQW50aHJvcGljIENvbnRlbnQgQ3JlZGVudGlhbHMgUm9vdCBDQTAeFw0yNjA4MDcxODQzNTZaFw0yODA4MDYxOTQzNTZaMEQxFzAVBgNVBAoTDkFudGhyb3BpYywgUEJDMSkwJwYDVQQDEyBBbnRocm9waWMgQ2xhdWRlIENvbnRlbnQgU2lnbmluZzBZMBMGByqGSM49AgEGCCqGSM49AwEHA0IABJh6CmvLUBgFFNU0vUKlOVtE6djd17L5SuwX0LemFisBM3dkd/3cyjxFA3Qo5S46fX0/ihY0VZ7mfb9KF703t5OjWDBWMA4GA1UdDwEB/wQEAwIHgDAVBgNVHSUEDjAMBgorBgEEAYPoXgIBMAwGA1UdEwEB/wQCMAAwHwYDVR0jBBgwFoAUzlHiBIFOZFsj+OPEz5o+nMHXXMIwCgYIKoZIzj0EAwMDZwAwZAIwMXMdFJ4BetLLVY7ORuE9noqbbAZOZn/aArXyTwFAZfKrPzxF2vPoJNf1+UCdg1XGAjBwX1zd9WGqYkqmL5SFqw1QySjr1zJfpJM9+1rdDwSPLMOPOjKuiXjoU/pUUeG9RwmhY3BhZFkNngAAAAAAAAAAAAAAAAAAAAAAAAAAAAAAAAAAAAAAAAAAAAAAAAAAAAAAAAAAAAAAAAAAAAAAAAAAAAAAAAAAAAAAAAAAAAAAAAAAAAAAAAAAAAAAAAAAAAAAAAAAAAAAAAAAAAAAAAAAAAAAAAAAAAAAAAAAAAAAAAAAAAAAAAAAAAAAAAAAAAAAAAAAAAAAAAAAAAAAAAAAAAAAAAAAAAAAAAAAAAAAAAAAAAAAAAAAAAAAAAAAAAAAAAAAAAAAAAAAAAAAAAAAAAAAAAAAAAAAAAAAAAAAAAAAAAAAAAAAAAAAAAAAAAAAAAAAAAAAAAAAAAAAAAAAAAAAAAAAAAAAAAAAAAAAAAAAAAAAAAAAAAAAAAAAAAAAAAAAAAAAAAAAAAAAAAAAAAAAAAAAAAAAAAAAAAAAAAAAAAAAAAAAAAAAAAAAAAAAAAAAAAAAAAAAAAAAAAAAAAAAAAAAAAAAAAAAAAAAAAAAAAAAAAAAAAAAAAAAAAAAAAAAAAAAAAAAAAAAAAAAAAAAAAAAAAAAAAAAAAAAAAAAAAAAAAAAAAAAAAAAAAAAAAAAAAAAAAAAAAAAAAAAAAAAAAAAAAAAAAAAAAAAAAAAAAAAAAAAAAAAAAAAAAAAAAAAAAAAAAAAAAAAAAAAAAAAAAAAAAAAAAAAAAAAAAAAAAAAAAAAAAAAAAAAAAAAAAAAAAAAAAAAAAAAAAAAAAAAAAAAAAAAAAAAAAAAAAAAAAAAAAAAAAAAAAAAAAAAAAAAAAAAAAAAAAAAAAAAAAAAAAAAAAAAAAAAAAAAAAAAAAAAAAAAAAAAAAAAAAAAAAAAAAAAAAAAAAAAAAAAAAAAAAAAAAAAAAAAAAAAAAAAAAAAAAAAAAAAAAAAAAAAAAAAAAAAAAAAAAAAAAAAAAAAAAAAAAAAAAAAAAAAAAAAAAAAAAAAAAAAAAAAAAAAAAAAAAAAAAAAAAAAAAAAAAAAAAAAAAAAAAAAAAAAAAAAAAAAAAAAAAAAAAAAAAAAAAAAAAAAAAAAAAAAAAAAAAAAAAAAAAAAAAAAAAAAAAAAAAAAAAAAAAAAAAAAAAAAAAAAAAAAAAAAAAAAAAAAAAAAAAAAAAAAAAAAAAAAAAAAAAAAAAAAAAAAAAAAAAAAAAAAAAAAAAAAAAAAAAAAAAAAAAAAAAAAAAAAAAAAAAAAAAAAAAAAAAAAAAAAAAAAAAAAAAAAAAAAAAAAAAAAAAAAAAAAAAAAAAAAAAAAAAAAAAAAAAAAAAAAAAAAAAAAAAAAAAAAAAAAAAAAAAAAAAAAAAAAAAAAAAAAAAAAAAAAAAAAAAAAAAAAAAAAAAAAAAAAAAAAAAAAAAAAAAAAAAAAAAAAAAAAAAAAAAAAAAAAAAAAAAAAAAAAAAAAAAAAAAAAAAAAAAAAAAAAAAAAAAAAAAAAAAAAAAAAAAAAAAAAAAAAAAAAAAAAAAAAAAAAAAAAAAAAAAAAAAAAAAAAAAAAAAAAAAAAAAAAAAAAAAAAAAAAAAAAAAAAAAAAAAAAAAAAAAAAAAAAAAAAAAAAAAAAAAAAAAAAAAAAAAAAAAAAAAAAAAAAAAAAAAAAAAAAAAAAAAAAAAAAAAAAAAAAAAAAAAAAAAAAAAAAAAAAAAAAAAAAAAAAAAAAAAAAAAAAAAAAAAAAAAAAAAAAAAAAAAAAAAAAAAAAAAAAAAAAAAAAAAAAAAAAAAAAAAAAAAAAAAAAAAAAAAAAAAAAAAAAAAAAAAAAAAAAAAAAAAAAAAAAAAAAAAAAAAAAAAAAAAAAAAAAAAAAAAAAAAAAAAAAAAAAAAAAAAAAAAAAAAAAAAAAAAAAAAAAAAAAAAAAAAAAAAAAAAAAAAAAAAAAAAAAAAAAAAAAAAAAAAAAAAAAAAAAAAAAAAAAAAAAAAAAAAAAAAAAAAAAAAAAAAAAAAAAAAAAAAAAAAAAAAAAAAAAAAAAAAAAAAAAAAAAAAAAAAAAAAAAAAAAAAAAAAAAAAAAAAAAAAAAAAAAAAAAAAAAAAAAAAAAAAAAAAAAAAAAAAAAAAAAAAAAAAAAAAAAAAAAAAAAAAAAAAAAAAAAAAAAAAAAAAAAAAAAAAAAAAAAAAAAAAAAAAAAAAAAAAAAAAAAAAAAAAAAAAAAAAAAAAAAAAAAAAAAAAAAAAAAAAAAAAAAAAAAAAAAAAAAAAAAAAAAAAAAAAAAAAAAAAAAAAAAAAAAAAAAAAAAAAAAAAAAAAAAAAAAAAAAAAAAAAAAAAAAAAAAAAAAAAAAAAAAAAAAAAAAAAAAAAAAAAAAAAAAAAAAAAAAAAAAAAAAAAAAAAAAAAAAAAAAAAAAAAAAAAAAAAAAAAAAAAAAAAAAAAAAAAAAAAAAAAAAAAAAAAAAAAAAAAAAAAAAAAAAAAAAAAAAAAAAAAAAAAAAAAAAAAAAAAAAAAAAAAAAAAAAAAAAAAAAAAAAAAAAAAAAAAAAAAAAAAAAAAAAAAAAAAAAAAAAAAAAAAAAAAAAAAAAAAAAAAAAAAAAAAAAAAAAAAAAAAAAAAAAAAAAAAAAAAAAAAAAAAAAAAAAAAAAAAAAAAAAAAAAAAAAAAAAAAAAAAAAAAAAAAAAAAAAAAAAAAAAAAAAAAAAAAAAAAAAAAAAAAAAAAAAAAAAAAAAAAAAAAAAAAAAAAAAAAAAAAAAAAAAAAAAAAAAAAAAAAAAAAAAAAAAAAAAAAAAAAAAAAAAAAAAAAAAAAAAAAAAAAAAAAAAAAAAAAAAAAAAAAAAAAAAAAAAAAAAAAAAAAAAAAAAAAAAAAAAAAAAAAAAAAAAAAAAAAAAAAAAAAAAAAAAAAAAAAAAAAAAAAAAAAAAAAAAAAAAAAAAAAAAAAAAAAAAAAAAAAAAAAAAAAAAAAAAAAAAAAAAAAAAAAAAAAAAAAAAAAAAAAAAAAAAAAAAAAAAAAAAAAAAAAAAAAAAAAAAAAAAAAAAAAAAAAAAAAAAAAAAAAAAAAAAAAAAAAAAAAAAAAAAAAAAAAAAAAAAAAAAAAAAAAAAAAAAAAAAAAAAAAAAAAAAAAAAAAAAAAAAAAAAAAAAAAAAAAAAAAAAAAAAAAAAAAAAAAAAAAAAAAAAAAAAAAAAAAAAAAAAAAAAAAAAAAAAAAAAAAAAAAAAAAAAAAAAAAAAAAAAAAAAAAAAAAAAAAAAAAAAAAAAAAAAAAAAAAAAAAAAAAAAAAAAAAAAAAAAAAAAAAAAAAAAAAAAAAAAAAAAAAAAAAAAAAAAAAAAAAAAAAAAAAAAAAAAAAAAAAAAAAAAAAAAAAAAAAAAAAAAAAAAAAAAAAAAAAAAAAAAAAAAAAAAAAAAAAAAAAAAAAAAAAAAAAAAAAAAAAAAAAAAAAAAAAAAAAAAAAAAAAAAAAAAAAAAAAAAAAAAAAAAAAAAAAAAAAAAAAAAAAAAAAAAAAAAAAAAAAAAAAAAAAAAAAAAAAAAAAAAAAAAAAAAAAAAAAAAAAAAAAAAAAAAAAAAAAAAAAAAAAAAAAAAAAAAAAAAAAAAAAAAAAAAAAAAAAAAAAAAAAAAAAAAAAAAAAAAAAAAAAAAAAAAAAAAAAAAAAAAAAAAAAAAAAAAAAAAAAAAAAAAAAAAAAAAAAAAAAAAAAAAAAAAAAAAAAAAAAAAAAAAAAAAAAAAAAAAAAAAAAAAAAAAAAAAAAAAAAAAAAAAAAAAAAAAAAAAAAAAAAAAAAAAAAAAAAAAAAAAAAAAAAAAAAAAAAAAAAAAAAAAAAAAAAAAAAAAAAAAAAAAAAAAAAAAAAAAAAAAAAAAAAAAAAAAAAAAAAAAAAAAAAAAAAAAAAAAAAAAAAAAAAAAAAAAAAAAAAAAAAAAAAAAAAAAAAAAAAAAAAAAAAAAAAAAAAAAAAAAAAAAAAAAAAAAAAAAAAAAAAAAAAAAAAAAAAAAAAAAAAAAAAAAAAAAAAAAAAAAAAAAAAAAAAAAAAAAAAAAAAAAAAAAAAAAAAAAAAAAAAAAAAAAAAAAAAAAAAAAAAAAAAAAAAAAAAAAAAAAAAAAAAAAAAAAAAAAAAAAAAAAAAAAAAAAAAAAAAAAAAAAAAAAAAAAAAAAAAAAAAAAAAAAAAAAAAAAAAAAAAAAAAAAAAAAAAAAAAAAAAAAAAAAAAAAAAAAAAAAAAAAAAAAAAAAAAAAAAAAAAAAAAAAAAAAAAAAAAAAAAAAAAAAAAAAAAAAAAAAAAAAAAAAAAAAAAAAAAAAAAAAAAAAAAAAAAAAAAAAAAAAAAAAAAAAAAAAAAAAAAAAAAAAAAAAAAAAAAAAAAAAAAAAAAAAAAAAAAAAAAAAAAAAAAAAAAAAAAAAAAAAAAAAAAAAAAAAAAAAAAAAAAAAAAAAAAAAAAAAAAAAAAAAAAAAAAAAAAAAAAAAAAAAAAAAAAAAAAAAAAAAAAAAAAAAAAAAAAAAAAAAAAAAAAAAAAAAAAAAAAAAAAAAAAAAAAAAAAAAAAAAAAAAAAAAAAAAAAAAAAAAAAAAAAAAAAAAAAAAAAAAAAAAAAAAAAAAAAAAAAAAAAAAAAAAAAAAAAAAAAAAAAAAAAAAAAAAAAAAAAAAAAAAAAAAAAAAAAAAAAAAAAAAAAAAAAAAAAAAAAAAAAAAAAAAAAAAAAAAAAAAAAAAAAAAAAAAAAAAAAAAAAAAAAAAAAAAAAAAAPZYQKozv4Mw2CNkCmbf+zpYesclxTxWNbg+NAWZmjfCA9VqTfXtqIQV7KBES6sWR9ZA9huxgZkCDONb/IfivopXrQw=</c2pa:manifest></metadata>
<path fill-rule="evenodd" clip-rule="evenodd" d="M28.7026 16.1673V32.3343L28.0116 32.517C26.7398 32.8536 26.7947 33.2308 26.7968 24.1894C26.7978 19.6113 26.7966 15.4064 26.794 14.8454C26.7891 13.8385 26.7815 13.8272 26.2044 13.9687C25.883 14.0474 25.5879 14.1994 25.549 14.3063C25.5098 14.4132 25.3157 14.5007 25.1174 14.5007C24.9192 14.5007 24.619 14.6897 24.4504 14.9206C24.2818 15.1515 24.0175 15.3405 23.8629 15.3405C23.7086 15.3405 23.3767 15.5295 23.1258 15.7604C22.8747 15.9913 22.5439 16.1803 22.3904 16.1803C22.2371 16.1803 22.1117 16.2748 22.1117 16.3902C22.1117 16.5057 21.9641 16.6002 21.7838 16.6002C21.6035 16.6002 21.2506 16.7891 20.9997 17.0201C20.7486 17.251 20.4178 17.44 20.2643 17.44C20.111 17.44 19.9855 17.5185 19.9855 17.6145C19.9855 17.7104 19.7225 17.9231 19.4009 18.0868C18.2349 18.681 18.2846 18.2575 18.2846 27.6C18.2846 36.007 18.2698 36.3284 17.8734 36.5379C17.6472 36.6574 17.3715 36.7552 17.2605 36.7552C17.1374 36.7552 17.0521 33.791 17.0417 29.1446C17.0324 24.9589 17.0213 21.1326 17.0168 20.6417L17.009 19.7494H15.4144H13.8198V29.0438V38.3382L11.4279 39.5354C7.88557 41.3082 5.22303 42.7003 5.10269 42.8429C5.04422 42.9122 4.51801 43.2393 3.93332 43.5695C1.99707 44.6638 0 46.0045 0 46.2103C0 46.657 0.865331 46.3119 5.69843 43.9371C11.0852 41.2903 18.5997 38.0661 21.4738 37.1686C21.7662 37.0773 22.8186 36.7019 23.8126 36.3343C27.5968 34.9346 34.8008 32.7286 38.1639 31.9394C38.7486 31.8021 39.5618 31.6023 39.9711 31.4952C43.0829 30.6806 49.6473 29.4473 54.1098 28.8389C58.0837 28.2973 68.0635 28.2962 70.3961 28.837C80.021 31.069 81.0879 36.079 73.568 43.7312C71.7234 45.6081 71.1196 46.4128 71.5557 46.4128C72.169 46.4128 77.2505 42.3501 79.6962 39.9045C86.2625 33.3379 85.8713 27.8093 78.6665 25.3563C76.2837 24.5451 74.7508 24.3462 69.8962 24.2184C66.4445 24.1275 65.4845 24.0418 65.4845 23.8251C65.4845 23.2814 64.9851 22.4787 64.6468 22.4787C64.4576 22.4787 64.1648 22.2898 63.9962 22.0588C63.8276 21.8279 63.5196 21.639 63.3114 21.639C63.1035 21.639 62.9332 21.5445 62.9332 21.429C62.9332 21.3135 62.8077 21.2191 62.6544 21.2191C62.5009 21.2191 62.1901 21.0538 61.9635 20.8516C61.7366 20.6495 61.288 20.3501 60.9665 20.1863C60.645 20.0226 60.3818 19.8099 60.3818 19.7139C60.3818 19.618 60.1905 19.5395 59.9566 19.5395C59.7227 19.5395 59.5314 19.445 59.5314 19.3295C59.5314 19.214 59.4059 19.1196 59.2527 19.1196C59.0991 19.1196 58.7683 18.9306 58.5172 18.6997C58.2663 18.4687 57.9345 18.2798 57.7801 18.2798C57.6255 18.2798 57.3613 18.0908 57.1927 17.8599C57.0241 17.6289 56.716 17.44 56.5078 17.44C56.2999 17.44 56.1285 17.369 56.1273 17.2825C56.1232 17.0222 54.4861 16.3304 54.2356 16.4833C54.0796 16.5786 54.0035 18.0986 54.0035 21.1265V25.628H53.2593H52.5152V20.2669V14.9059L50.3359 14.9657C48.3306 15.0208 48.1543 15.0592 48.126 15.4455C48.1092 15.6764 48.0854 18.2964 48.0729 21.2676L48.0503 26.6697L47.5088 26.8039C47.2112 26.8778 46.922 26.8931 46.8665 26.8383C46.811 26.7835 46.7285 22.3553 46.6834 16.998C46.6384 11.6408 46.5378 7.10087 46.4602 6.9094C46.3824 6.71772 46.0388 6.44646 45.6963 6.30643C45.354 6.16639 45.0738 5.96883 45.0738 5.86743C45.0738 5.76581 44.9483 5.68288 44.795 5.68288C44.6415 5.68288 44.3307 5.51744 44.104 5.31547C43.8772 5.1135 43.4286 4.81391 43.1071 4.65015C42.7856 4.48639 42.5224 4.27371 42.5224 4.17776C42.5224 4.08182 42.3311 4.00329 42.0972 4.00329C41.8633 4.00329 41.672 3.92036 41.672 3.81875C41.672 3.71734 41.3849 3.51684 41.0341 3.37345C40.6833 3.23005 40.3963 3.0411 40.3963 2.95355C40.3963 2.866 40.1093 2.67705 39.7585 2.53366C39.4076 2.39026 39.1206 2.18976 39.1206 2.08836C39.1206 1.98674 38.9952 1.90381 38.8419 1.90381C38.6884 1.90381 38.3576 1.71486 38.1065 1.48391C37.8556 1.25297 37.5026 1.06402 37.3224 1.06402C37.1421 1.06402 36.9937 0.993266 36.9928 0.906557C36.9909 0.718443 35.9616 0.224225 35.5715 0.224225C35.3495 0.224225 35.286 3.11269 35.2419 15.183L35.1873 30.1419L34.3917 30.3359C33.9542 30.4427 33.5427 30.4776 33.4777 30.4133C33.4128 30.3491 33.3403 23.5067 33.3167 15.2078L33.2738 0.119251L30.9882 0.0596254L28.7026 0V16.1673ZM200.653 6.05848L198.792 6.11915V9.26019V12.4012H197.327C195.611 12.4012 195.603 12.4109 195.603 14.5007C195.603 16.588 195.613 16.6002 197.311 16.6002H198.761L198.83 22.0064C198.894 27.0688 198.928 27.4659 199.356 28.2523C200.486 30.3251 201.774 30.866 205.596 30.8721L208.466 30.8765V29.0396V27.2026L207.084 27.0833C204.212 26.8356 203.868 26.3976 203.728 22.8094C203.673 21.3891 203.696 19.4141 203.78 18.4204L203.932 16.614L206.199 16.5546L208.466 16.4952L208.527 14.4482L208.588 12.4012H206.265H203.941L203.801 11.8505C203.724 11.5476 203.677 10.1554 203.697 8.75673L203.732 6.21363L203.123 6.10572C202.787 6.0463 201.676 6.0251 200.653 6.05848ZM89.7223 18.4897V30.8874L93.0709 30.8294L96.4196 30.7717V18.4897V6.20775L93.0709 6.15002L89.7223 6.09207V18.4897ZM209.739 6.78511C209.669 7.16029 209.641 8.17602 209.677 9.04205L209.742 10.6167H212.187H214.632L214.692 8.35972L214.753 6.10278H212.31H209.867L209.739 6.78511ZM239.401 9.11553V11.5291L241.79 11.4928C243.879 11.4611 244.188 11.4103 244.251 11.089C244.308 10.7955 244.172 10.7216 243.577 10.7216C242.696 10.7216 242.567 10.4628 242.679 8.9184C242.779 7.54554 242.618 6.73262 242.247 6.73262C242.017 6.73262 241.953 7.16889 241.953 8.72713V10.7216H241.11H240.268L240.207 8.78193C240.154 7.13005 240.09 6.83193 239.773 6.77209C239.436 6.70848 239.401 6.92997 239.401 9.11553ZM245.223 7.06497C243.159 8.07062 243.947 11.4859 246.23 11.4266C247.15 11.4029 247.621 11.1159 247.378 10.7277C247.286 10.5808 246.984 10.54 246.601 10.623C245.569 10.8468 244.929 10.282 244.929 9.14703C244.929 8.00197 245.568 7.44687 246.621 7.6755C247.431 7.85123 247.592 7.07715 246.789 6.86489C246.109 6.68496 245.966 6.70323 245.223 7.06497ZM98.652 21.639V30.8767H101.203H103.755V23.8434V16.8101H106.515C109.265 16.8101 109.279 16.8127 109.97 17.4226L110.665 18.035L110.734 24.4558L110.804 30.8767H113.352H115.899L115.833 23.7909C115.769 16.9323 115.752 16.6716 115.282 15.6554C113.994 12.8661 112.402 12.4012 104.141 12.4012H98.652V21.639ZM117.896 13.0649C117.825 13.4503 117.795 17.5922 117.83 22.2688L117.893 30.7717L120.498 30.8307L123.102 30.8897V23.8256V16.7614L125.92 16.8484C128.909 16.9407 129.471 17.1057 129.891 18.0159C130.036 18.3312 130.119 20.7439 130.119 24.6931V30.8767H132.67H135.221V24.1965C135.221 16.2897 135.139 15.8076 133.533 14.2691C131.835 12.6433 131.372 12.5528 124.232 12.4516L118.026 12.3636L117.896 13.0649ZM144.055 12.7136C140.841 13.6158 138.288 15.6244 137.31 18.018C136.62 19.7078 136.62 24.0783 137.31 25.8173C138.751 29.4505 142.02 31.3043 146.958 31.2892C151.755 31.2745 154.54 30.04 156.487 27.0659C159.488 22.4811 157.929 15.9968 153.28 13.7245C150.758 12.4913 146.506 12.0254 144.055 12.7136ZM156.482 12.6926C156.482 12.8593 157.163 14.6334 157.995 16.635C158.828 18.6367 159.821 21.0301 160.202 21.9539C160.583 22.8776 161.234 24.4365 161.647 25.418C162.06 26.3995 162.733 28.0056 163.141 28.9871L163.884 30.7717H167.015H170.146L170.978 28.8822C171.436 27.8429 171.942 26.7092 172.103 26.3628C172.264 26.0164 172.584 25.2606 172.814 24.6832C173.045 24.1058 173.578 22.9169 174 22.0408C174.422 21.1649 174.767 20.3898 174.767 20.3182C174.767 20.2468 175.046 19.5934 175.387 18.8666C175.727 18.1397 176.369 16.6775 176.812 15.6172C177.256 14.557 177.694 13.7359 177.787 13.7926C177.88 13.8492 177.956 14.5423 177.956 15.3327V16.7698L183.194 16.7992C189.572 16.8351 190.075 16.9947 190.075 18.9802V19.7083L185.451 19.7868C180.357 19.8731 179.627 20.032 178.297 21.3457C176.691 22.9316 176.232 26.2958 177.369 28.1473C178.248 29.5802 178.6 29.9015 179.845 30.4095C180.952 30.8613 181.228 30.8767 188.296 30.8767H195.603L195.597 25.2606C195.593 22.1716 195.5 18.9613 195.39 18.1261C194.983 15.0319 193.423 13.3536 190.356 12.712C188.382 12.299 172.322 12.2564 172.152 12.6637C172.091 12.8081 171.124 15.1935 170.001 17.9649C168.879 20.7362 167.874 23.1926 167.769 23.4235C167.663 23.6545 167.517 24.0246 167.444 24.2459C167.196 24.9985 167.334 25.3013 163.45 15.4455L162.292 12.5062L159.387 12.4478C156.97 12.3991 156.482 12.4403 156.482 12.6926ZM209.765 12.7334C209.694 12.916 209.636 17.073 209.636 21.9711V30.8767H212.187H214.738V21.639V12.4012H212.316C210.303 12.4012 209.872 12.4573 209.765 12.7334ZM216.014 12.6475C216.014 12.856 218.411 18.7217 219.302 20.6942C219.458 21.0406 220.086 22.5522 220.697 24.0534C221.308 25.5545 222.02 27.2551 222.28 27.8324C222.54 28.4098 222.923 29.3308 223.133 29.8794L223.513 30.8767H226.679H229.844L230.051 30.3394C230.165 30.0438 230.497 29.2853 230.79 28.6535C231.083 28.0218 231.322 27.4596 231.322 27.4039C231.322 27.3485 231.51 26.9026 231.739 26.413C232.645 24.4812 237.7 12.7529 237.7 12.5826C237.7 12.4829 236.373 12.4012 234.749 12.4012H231.799L231.578 12.9786C229.884 17.4022 226.953 24.5782 226.839 24.5782C226.691 24.5782 226.323 23.6948 224.305 18.4897C223.7 16.9309 222.915 14.9233 222.56 14.0283L221.913 12.4012H218.963C216.849 12.4012 216.014 12.4709 216.014 12.6475ZM242.536 12.6271C236.988 13.9324 234.052 20.9423 236.77 26.3955C237.726 28.3132 238.609 29.174 240.64 30.167L242.271 30.9644L247.374 30.973L252.477 30.9816L252.547 29.22C252.599 27.921 252.543 27.4119 252.335 27.2813C252.179 27.1837 250.167 27.1026 247.865 27.1008C242.655 27.0968 242.25 26.9477 241.739 24.8442L241.574 24.1653L247.025 24.1094L252.477 24.0534V22.0588V20.0643L247.108 20.0083C241.07 19.9451 241.289 20.0171 242.087 18.3568C242.814 16.8427 243.671 16.6002 248.292 16.6002C253.003 16.6002 252.606 16.837 252.524 14.0808L252.477 12.5062L247.906 12.4728C245.392 12.4543 242.975 12.5238 242.536 12.6271ZM144.884 17.12C142.559 18.2693 141.66 21.8015 142.928 24.7995C144.115 27.6036 148.218 28.3905 150.532 26.2578C152.759 24.2054 152.804 19.3717 150.611 17.6682C149.043 16.4505 146.693 16.2254 144.884 17.12ZM183.83 23.7393C182.375 23.9207 181.754 25.0267 182.419 26.2538C182.779 26.9175 187.159 27.381 189.309 26.983L190.075 26.8408L190.075 25.2373L190.074 23.6335L187.47 23.6217C186.038 23.6152 184.4 23.6681 183.83 23.7393ZM54.2667 30.3631C54.0585 30.5891 54.0107 32.3862 54.0541 38.3592L54.1098 46.0639L54.7476 46.433C55.0984 46.636 55.553 46.809 55.7575 46.8174C55.9621 46.8258 56.1296 46.9272 56.1296 47.0427C56.1296 47.1582 56.3209 47.2526 56.5548 47.2526C56.7887 47.2526 56.98 47.3471 56.98 47.4626C56.98 47.5781 57.1714 47.6725 57.4053 47.6725C57.6391 47.6725 57.8305 47.767 57.8305 47.8825C57.8305 47.998 58.0218 48.0924 58.2557 48.0924C58.4896 48.0924 58.6809 48.1869 58.6809 48.3024C58.6809 48.4179 58.8723 48.5123 59.1062 48.5123C59.34 48.5123 59.5322 48.5831 59.5331 48.6698C59.535 48.8583 60.5647 49.3521 60.9557 49.3521C61.1079 49.3521 61.2331 49.4229 61.234 49.5096C61.2359 49.6937 62.2617 50.1919 62.6389 50.1919C62.7814 50.1919 62.9296 50.2671 62.9687 50.359C63.1179 50.7113 64.9258 51.3953 65.1531 51.1856C65.3064 51.0441 65.368 47.7666 65.3459 40.9097C65.3142 30.9882 65.3072 30.8355 64.8694 30.4326C64.454 30.0503 64.1049 30.0255 59.4801 30.0478C55.5562 30.0669 54.4795 30.132 54.2667 30.3631ZM50.0164 30.7602C49.1683 30.9019 48.4028 31.0883 48.3155 31.1744C48.2281 31.2605 48.1566 33.9841 48.1566 37.227V43.1232L50.1765 44.1274C51.2874 44.6795 52.2692 45.1364 52.3585 45.1422C52.4478 45.1483 52.4956 41.8702 52.4648 37.8575C52.4006 29.4702 52.6912 30.313 50.0164 30.7602ZM44.2233 31.5441C44.2233 31.6388 43.8406 31.7165 43.3729 31.7165C42.9051 31.7165 42.5224 31.8109 42.5224 31.9264C42.5224 32.0419 42.044 32.1364 41.4594 32.1364C40.8747 32.1364 40.3963 32.2308 40.3963 32.3463C40.3963 32.4618 39.9715 32.5563 39.4521 32.5563C38.9327 32.5563 38.4488 32.6507 38.3765 32.7662C38.3042 32.8817 38.0354 32.9776 37.7793 32.9793C37.2071 32.9833 35.7813 33.4603 35.4941 33.7439C35.3661 33.8703 35.3059 35.3532 35.3414 37.5058L35.3999 41.0592L36.1441 40.9863C36.5533 40.9462 36.936 40.8494 36.9945 40.7713C37.1931 40.506 39.71 39.2746 40.054 39.2746C40.2422 39.2746 40.3963 39.3691 40.3963 39.4846C40.3963 39.6 40.5139 39.6945 40.6574 39.6945C41.0626 39.6945 43.7981 41.0069 43.7981 41.2013C43.7981 41.2964 43.9894 41.3741 44.2233 41.3741C44.4572 41.3741 44.6485 41.4843 44.6485 41.6191C44.6485 41.7537 44.7098 41.8034 44.7846 41.7295C44.8595 41.6556 45.1986 41.757 45.5379 41.955C46.2633 42.3783 46.5433 42.1358 46.5727 41.0592C46.6484 38.291 46.5654 31.6818 46.453 31.5019C46.2916 31.2443 44.2233 31.2831 44.2233 31.5441ZM32.1044 34.4351C31.8121 34.5291 30.975 34.7739 30.2441 34.9791L28.9152 35.3521V39.8327C28.9152 42.8276 28.9894 44.3134 29.1389 44.3134C29.4004 44.3134 32.7259 42.697 33.1103 42.3829C33.3048 42.224 33.3554 41.1639 33.3076 38.2549C33.2381 34.0383 33.2472 34.0675 32.1044 34.4351ZM116.102 35.5138C112.969 36.0538 110.884 38.1088 110.903 40.6393C110.913 42.158 111.296 42.9561 112.502 43.9758C116.071 46.9917 122.631 45.9713 124.4 42.1255C126.13 38.3653 121.404 34.5999 116.102 35.5138ZM131.075 35.5035C126.431 36.1892 124.144 40.5171 126.857 43.4834C129.955 46.8689 136.925 46.3423 139.037 42.5634C141.258 38.5874 136.824 34.6551 131.075 35.5035ZM181.677 35.4111C177.638 35.9736 174.995 39.1533 176.129 42.086C176.321 42.5834 176.713 43.2074 176.998 43.4725C177.284 43.7377 177.458 44.0589 177.384 44.1864C177.311 44.314 177.321 44.3556 177.408 44.2787C177.495 44.2021 177.898 44.3621 178.305 44.6346C180.152 45.8724 184.509 46.1046 187.311 45.1145L188.693 44.6264L188.756 42.9932C188.817 41.3697 188.821 41.3592 189.447 41.2357C189.792 41.1675 190.075 40.9932 190.075 40.8484C190.075 40.4837 184.72 40.5486 184.596 40.9147C184.547 41.0611 184.722 41.1641 185.021 41.1641C185.956 41.1641 186.276 41.5987 186.307 42.9078C186.348 44.639 185.918 45.014 183.771 45.121C182.196 45.1998 180.508 44.8987 180.508 44.5393C180.508 44.4421 180.327 44.3157 180.107 44.2588C178.785 43.9174 178.015 40.3409 178.899 38.6448C179.896 36.73 181.19 36.0227 183.697 36.0217C185.851 36.0208 187.054 36.6112 188.042 38.1526C188.363 38.6542 188.665 39.0647 188.713 39.0647C188.76 39.0647 188.8 38.2469 188.8 37.2476C188.8 35.4498 188.795 35.4344 188.379 35.8067C187.977 36.1659 187.898 36.1665 186.651 35.8212C185.327 35.4542 182.84 35.2491 181.677 35.4111ZM226.007 35.5783C222.908 36.282 221.031 38.1524 221.033 40.5343C221.036 46.0629 230.728 47.7901 234.171 42.8759C236.953 38.9047 231.768 34.2694 226.007 35.5783ZM239.022 35.6698C236.622 36.5157 235.824 38.1969 237.077 39.7695C237.68 40.5272 238.36 40.8463 240.659 41.4522C243.133 42.1041 243.656 42.4308 243.647 43.3209C243.634 44.5901 242.804 45.1532 240.946 45.1532C240.26 45.1532 239.584 45.04 239.444 44.9012C239.303 44.7627 239.189 44.7179 239.189 44.8017C239.189 45.1853 237.853 44.2153 237.352 43.4677C236.579 42.3136 236.425 42.4135 236.425 44.0684C236.425 45.5972 236.559 45.9648 236.935 45.4683C237.14 45.1981 237.325 45.2012 238.444 45.495C239.97 45.8953 242.823 45.7925 243.773 45.3026C245.581 44.3707 246.224 42.7236 245.264 41.4816C244.542 40.5463 243.932 40.24 241.684 39.6832C239.133 39.0512 238.551 38.6647 238.551 37.603C238.551 35.3557 242.716 35.366 244.225 37.6171C244.919 38.6527 245.142 38.4999 245.142 36.9879C245.142 35.6576 245.013 35.3757 244.57 35.7384C244.351 35.9177 244.073 35.9173 243.461 35.7364C241.884 35.2696 240.227 35.2449 239.022 35.6698ZM96.9511 35.6889C96.9511 35.7951 97.262 35.9478 97.6421 36.028C98.868 36.2868 98.8646 36.2747 98.8646 40.4148C98.8646 44.5326 98.7943 44.8296 97.7522 45.1049C97.4329 45.1891 97.1705 45.3526 97.169 45.4681C97.1656 45.7341 102.884 45.7133 102.958 45.4471C102.987 45.3432 102.771 45.2258 102.479 45.1865C101.44 45.0465 101.203 44.605 101.203 42.8112V41.1641L101.788 41.165C102.683 41.166 103.513 41.7757 105.466 43.867L107.256 45.7836L109.067 45.7041C111.03 45.6178 111.483 45.3658 110.199 45.074C109.571 44.9312 108.971 44.4622 107.529 42.9857C105.505 40.9141 105.459 40.8381 106.107 40.6349C106.349 40.5593 106.875 40.2124 107.277 39.8641C108.812 38.5329 108.009 36.5163 105.669 35.8302C104.387 35.4542 96.9511 35.3335 96.9511 35.6889ZM140.749 35.6973C140.749 35.8084 141.132 36.0011 141.6 36.1254L142.45 36.3515V40.4255C142.45 44.3976 142.438 44.5078 141.977 44.8263C141.718 45.006 141.327 45.1532 141.109 45.1532C140.889 45.1532 140.753 45.2686 140.801 45.4133C140.886 45.6627 145.962 45.8378 146.648 45.615C147.053 45.4834 146.737 45.1532 146.205 45.1532C145.086 45.1532 144.789 44.6447 144.789 42.7268V40.9542H146.248C147.852 40.9542 148.739 41.3945 148.867 42.2542C148.904 42.5026 149.054 42.7448 149.201 42.7923C149.403 42.858 149.466 42.3195 149.466 40.5517C149.466 39.1405 149.383 38.2249 149.254 38.2249C149.137 38.2249 149.041 38.3519 149.041 38.507C149.041 39.1791 148.065 39.9162 146.943 40.0913C144.821 40.4226 144.903 40.4969 144.835 38.2024L144.774 36.1856L145.801 36.0655C148.224 35.7821 150.033 36.3101 151.643 37.771C152.473 38.523 152.538 38.2599 151.89 36.7838L151.324 35.4955H146.037C142.795 35.4955 140.749 35.5736 140.749 35.6973ZM152.868 35.6889C152.868 35.7951 153.179 35.9486 153.559 36.0301C154.556 36.2436 154.562 36.273 154.566 40.5542C154.569 44.8103 154.511 45.0224 153.293 45.1865C153.001 45.2258 152.81 45.3526 152.868 45.4681C153.032 45.792 158.446 45.7398 158.556 45.4133C158.612 45.2466 158.424 45.1532 158.031 45.1532C156.952 45.1532 156.908 44.9734 156.908 40.6229C156.908 36.3141 156.914 36.29 158.025 36.0145C159.324 35.6927 158.455 35.4955 155.738 35.4955C154.132 35.4955 152.868 35.5806 152.868 35.6889ZM160.097 35.6889C160.097 35.7951 160.377 35.9427 160.719 36.0171C161.682 36.2257 161.928 36.8239 161.974 39.0647C162.066 43.5046 161.631 45.1292 160.345 45.1464C160.044 45.1504 159.884 45.2565 159.938 45.4156C160.057 45.7666 164.398 45.7446 164.516 45.3925C164.565 45.2487 164.341 45.1532 163.956 45.1532C162.649 45.1532 162.417 44.4185 162.483 40.5062L162.542 37.0935L164.137 38.443C166.362 40.326 167.047 40.9181 168.275 42.0195C170.924 44.3952 172.673 45.7885 172.861 45.6732C172.981 45.6001 173.068 43.8353 173.069 41.4142C173.073 36.8203 173.176 36.3654 174.292 36.0496C175.567 35.6883 174.993 35.4955 172.641 35.4955C170.199 35.4955 169.656 35.7275 171.162 36.1279C172.311 36.4334 172.454 36.8793 172.415 40.0466C172.382 42.7528 172.344 42.8626 171.664 42.2664C171.433 42.0642 170.53 41.2851 169.657 40.5349C168.784 39.7848 167.879 38.9975 167.645 38.7856C167.411 38.5738 166.442 37.747 165.492 36.948L163.766 35.4955H161.931C160.922 35.4955 160.097 35.5825 160.097 35.6889ZM195.178 35.7015C195.178 35.8147 195.441 35.9696 195.763 36.0454C196.875 36.3078 196.879 36.3236 196.879 40.5274C196.879 44.8124 196.821 45.0224 195.603 45.1865C195.311 45.2258 195.096 45.3526 195.125 45.4681C195.211 45.8092 201.131 45.7696 201.131 45.4278C201.131 45.2625 200.877 45.1532 200.493 45.1532C200.142 45.1532 199.855 45.053 199.855 44.9308C199.855 44.8086 199.77 44.7608 199.665 44.8246C199.366 45.0072 199.218 44.39 199.218 42.9611V41.6432L200.972 41.5341C203.227 41.3936 204.421 41.03 205.292 40.2185C206.988 38.6395 206.204 36.5692 203.624 35.8128C202.36 35.442 195.178 35.3475 195.178 35.7015ZM207.297 35.6828C207.297 35.7857 207.559 35.935 207.88 36.0145C208.99 36.2896 208.998 36.3221 208.994 40.5074C208.991 45.0047 208.976 45.0518 207.563 45.137C207.416 45.146 207.297 45.2714 207.297 45.4156C207.297 45.7353 213.005 45.775 213.09 45.4559C213.12 45.3472 212.857 45.2262 212.506 45.1872C211.457 45.0702 211.336 44.8376 211.336 42.9231V41.1641H212.053C212.716 41.1641 214.775 42.4765 214.988 43.0354C215.026 43.1349 215.558 43.7507 216.171 44.4039L217.285 45.5913L219.201 45.6617C220.643 45.7148 221.117 45.6663 221.117 45.466C221.117 45.3197 220.758 45.1345 220.319 45.0543C219.673 44.9365 219.149 44.5254 217.56 42.8887C215.688 40.9618 215.481 40.5488 216.379 40.5374C216.521 40.5358 216.975 40.241 217.388 39.8826C218.946 38.5324 218.159 36.5211 215.802 35.8302C214.539 35.4596 207.297 35.3341 207.297 35.6828ZM25.9387 36.1254C25.9387 36.2409 25.6516 36.3353 25.3008 36.3353C24.95 36.3353 24.663 36.4298 24.663 36.5453C24.663 36.6608 24.376 36.7552 24.0252 36.7552C23.6744 36.7552 23.3873 36.8497 23.3873 36.9652C23.3873 37.0806 23.1003 37.1751 22.7495 37.1751C22.3987 37.1751 22.1117 37.2696 22.1117 37.3851C22.1117 37.5005 21.8246 37.595 21.4738 37.595C21.123 37.595 20.836 37.6689 20.836 37.7592C20.836 37.8495 20.3814 38.0557 19.8261 38.2173C19.2707 38.379 18.6967 38.629 18.5504 38.773C18.2708 39.0483 18.1471 48.3337 18.4137 49.02C18.5534 49.3796 19.5603 49.4869 19.5603 49.1422C19.5603 49.0267 19.7517 48.9322 19.9855 48.9322C20.2194 48.9322 20.4108 48.8378 20.4108 48.7223C20.4108 48.6068 20.6021 48.5123 20.836 48.5123C21.0699 48.5123 21.2612 48.4179 21.2612 48.3024C21.2612 48.1869 21.4526 48.0924 21.6864 48.0924C21.9203 48.0924 22.1117 47.998 22.1117 47.8825C22.1117 47.767 22.303 47.6725 22.5369 47.6725C22.7708 47.6725 22.9621 47.5781 22.9621 47.4626C22.9621 47.3471 23.1535 47.2526 23.3873 47.2526C23.6212 47.2526 23.8126 47.1582 23.8126 47.0427C23.8126 46.9272 24.0039 46.8327 24.2378 46.8327C24.4717 46.8327 24.663 46.7383 24.663 46.6228C24.663 46.5073 24.8544 46.4128 25.0882 46.4128C25.3221 46.4128 25.5135 46.3184 25.5135 46.2029C25.5135 46.0874 25.6638 45.993 25.8475 45.993C26.7196 45.993 26.7891 45.5987 26.7891 40.6542C26.7891 36.0555 26.7766 35.9154 26.3639 35.9154C26.13 35.9154 25.9387 36.0099 25.9387 36.1254ZM101.352 36.0488C101.27 36.1294 101.203 37.1716 101.203 38.3649V40.5343H101.945C104.189 40.5343 105.817 39.4243 105.591 38.0489C105.448 37.1743 104.753 36.3941 103.994 36.2547C102.616 36.0021 101.488 35.9142 101.352 36.0488ZM116.193 36.1374C113.844 36.8149 112.63 40.4869 113.928 42.9869C114.755 44.5792 115.777 45.1532 117.787 45.1532C120.296 45.1532 121.814 43.786 122.159 41.2137C122.629 37.7176 119.612 35.1508 116.193 36.1374ZM130.835 36.218C129.092 36.9671 128.208 38.4972 128.206 40.7728C128.201 45.9048 135.396 46.961 136.845 42.0411C137.984 38.1741 134.389 34.6908 130.835 36.218ZM199.59 36.0603C199.263 36.1445 199.218 36.447 199.218 38.5551V40.9542H200.504C204.756 40.9542 205.232 36.4928 201.025 36.071C200.44 36.0122 199.794 36.0074 199.59 36.0603ZM211.488 36.0458C211.404 36.1281 211.336 37.1716 211.336 38.3649V40.5343H212.16C215.594 40.5343 217.125 37.7235 214.419 36.3878C213.856 36.1098 211.68 35.856 211.488 36.0458ZM226.307 36.1415C222.922 37.1117 222.594 43.1922 225.837 44.8582C226.756 45.3304 229.151 45.2426 230.046 44.7039C231.417 43.8788 232.07 42.8672 232.291 41.2257C232.762 37.7141 229.75 35.1546 226.307 36.1415ZM15.2018 39.9985L13.9261 40.4877L13.8695 46.0746C13.8383 49.1474 13.8646 51.6616 13.928 51.6616C13.9912 51.6616 14.7104 51.3296 15.526 50.924L17.009 50.1867L17.0292 48.772C17.1757 38.4791 17.3228 39.185 15.2018 39.9985Z" fill="white"/>
</svg>
